<svg xmlns="http://www.w3.org/2000/svg" xmlns:xlink="http://www.w3.org/1999/xlink" version="1.1" class="marks" width="1289" height="333" viewBox="0 0 1289 333"><g fill="none" stroke-miterlimit="10" transform="translate(44,5)"><g class="mark-group role-frame root" role="graphics-object" aria-roledescription="group mark container"><g transform="translate(0,0)"><path class="background" aria-hidden="true" d="M0.5,0.5h1240v200h-1240Z" stroke="#ddd"/><g><g class="mark-group role-axis" aria-hidden="true"><g transform="translate(0.5,0.5)"><path class="background" aria-hidden="true" d="M0,0h0v0h0Z" pointer-events="none"/><g><g class="mark-rule role-axis-grid" pointer-events="none"><line transform="translate(0,200)" x2="1240" y2="0" stroke="#ddd" stroke-width="1" opacity="1"/><line transform="translate(0,156)" x2="1240" y2="0" stroke="#ddd" stroke-width="1" opacity="1"/><line transform="translate(0,111)" x2="1240" y2="0" stroke="#ddd" stroke-width="1" opacity="1"/><line transform="translate(0,67)" x2="1240" y2="0" stroke="#ddd" stroke-width="1" opacity="1"/><line transform="translate(0,22)" x2="1240" y2="0" stroke="#ddd" stroke-width="1" opacity="1"/></g></g><path class="foreground" aria-hidden="true" d="" pointer-events="none" display="none"/></g></g><g class="mark-group role-axis" role="graphics-symbol" aria-roledescription="axis" aria-label="X-axis titled 'bean_origin' for a discrete scale with 62 values: Venezuela, Peru, Dominican Republic, Ecuador, Madagascar, ending with St.Vincent-Grenadines"><g transform="translate(0.5,200.5)"><path class="background" aria-hidden="true" d="M0,0h0v0h0Z" pointer-events="none"/><g><g class="mark-rule role-axis-tick" pointer-events="none"><line transform="translate(10,0)" x2="0" y2="5" stroke="#888" stroke-width="1" opacity="1"/><line transform="translate(30,0)" x2="0" y2="5" stroke="#888" stroke-width="1" opacity="1"/><line transform="translate(50,0)" x2="0" y2="5" stroke="#888" stroke-width="1" opacity="1"/><line transform="translate(70,0)" x2="0" y2="5" stroke="#888" stroke-width="1" opacity="1"/><line transform="translate(90,0)" x2="0" y2="5" stroke="#888" stroke-width="1" opacity="1"/><line transform="translate(110,0)" x2="0" y2="5" stroke="#888" stroke-width="1" opacity="1"/><line transform="translate(130,0)" x2="0" y2="5" stroke="#888" stroke-width="1" opacity="1"/><line transform="translate(150,0)" x2="0" y2="5" stroke="#888" stroke-width="1" opacity="1"/><line transform="translate(170,0)" x2="0" y2="5" stroke="#888" stroke-width="1" opacity="1"/><line transform="translate(190,0)" x2="0" y2="5" stroke="#888" stroke-width="1" opacity="1"/><line transform="translate(210,0)" x2="0" y2="5" stroke="#888" stroke-width="1" opacity="1"/><line transform="translate(230,0)" x2="0" y2="5" stroke="#888" stroke-width="1" opacity="1"/><line transform="translate(250,0)" x2="0" y2="5" stroke="#888" stroke-width="1" opacity="1"/><line transform="translate(270,0)" x2="0" y2="5" stroke="#888" stroke-width="1" opacity="1"/><line transform="translate(290,0)" x2="0" y2="5" stroke="#888" stroke-width="1" opacity="1"/><line transform="translate(310,0)" x2="0" y2="5" stroke="#888" stroke-width="1" opacity="1"/><line transform="translate(330,0)" x2="0" y2="5" stroke="#888" stroke-width="1" opacity="1"/><line transform="translate(350,0)" x2="0" y2="5" stroke="#888" stroke-width="1" opacity="1"/><line transform="translate(370,0)" x2="0" y2="5" stroke="#888" stroke-width="1" opacity="1"/><line transform="translate(390,0)" x2="0" y2="5" stroke="#888" stroke-width="1" opacity="1"/><line transform="translate(410,0)" x2="0" y2="5" stroke="#888" stroke-width="1" opacity="1"/><line transform="translate(430,0)" x2="0" y2="5" stroke="#888" stroke-width="1" opacity="1"/><line transform="translate(450,0)" x2="0" y2="5" stroke="#888" stroke-width="1" opacity="1"/><line transform="translate(470,0)" x2="0" y2="5" stroke="#888" stroke-width="1" opacity="1"/><line transform="translate(490,0)" x2="0" y2="5" stroke="#888" stroke-width="1" opacity="1"/><line transform="translate(510,0)" x2="0" y2="5" stroke="#888" stroke-width="1" opacity="1"/><line transform="translate(530,0)" x2="0" y2="5" stroke="#888" stroke-width="1" opacity="1"/><line transform="translate(550,0)" x2="0" y2="5" stroke="#888" stroke-width="1" opacity="1"/><line transform="translate(570,0)" x2="0" y2="5" stroke="#888" stroke-width="1" opacity="1"/><line transform="translate(590,0)" x2="0" y2="5" stroke="#888" stroke-width="1" opacity="1"/><line transform="translate(610,0)" x2="0" y2="5" stroke="#888" stroke-width="1" opacity="1"/><line transform="translate(630,0)" x2="0" y2="5" stroke="#888" stroke-width="1" opacity="1"/><line transform="translate(650,0)" x2="0" y2="5" stroke="#888" stroke-width="1" opacity="1"/><line transform="translate(670,0)" x2="0" y2="5" stroke="#888" stroke-width="1" opacity="1"/><line transform="translate(690,0)" x2="0" y2="5" stroke="#888" stroke-width="1" opacity="1"/><line transform="translate(710,0)" x2="0" y2="5" stroke="#888" stroke-width="1" opacity="1"/><line transform="translate(730,0)" x2="0" y2="5" stroke="#888" stroke-width="1" opacity="1"/><line transform="translate(750,0)" x2="0" y2="5" stroke="#888" stroke-width="1" opacity="1"/><line transform="translate(770,0)" x2="0" y2="5" stroke="#888" stroke-width="1" opacity="1"/><line transform="translate(790,0)" x2="0" y2="5" stroke="#888" stroke-width="1" opacity="1"/><line transform="translate(810,0)" x2="0" y2="5" stroke="#888" stroke-width="1" opacity="1"/><line transform="translate(830,0)" x2="0" y2="5" stroke="#888" stroke-width="1" opacity="1"/><line transform="translate(850,0)" x2="0" y2="5" stroke="#888" stroke-width="1" opacity="1"/><line transform="translate(870,0)" x2="0" y2="5" stroke="#888" stroke-width="1" opacity="1"/><line transform="translate(890,0)" x2="0" y2="5" stroke="#888" stroke-width="1" opacity="1"/><line transform="translate(910,0)" x2="0" y2="5" stroke="#888" stroke-width="1" opacity="1"/><line transform="translate(930,0)" x2="0" y2="5" stroke="#888" stroke-width="1" opacity="1"/><line transform="translate(950,0)" x2="0" y2="5" stroke="#888" stroke-width="1" opacity="1"/><line transform="translate(970,0)" x2="0" y2="5" stroke="#888" stroke-width="1" opacity="1"/><line transform="translate(990,0)" x2="0" y2="5" stroke="#888" stroke-width="1" opacity="1"/><line transform="translate(1010,0)" x2="0" y2="5" stroke="#888" stroke-width="1" opacity="1"/><line transform="translate(1030,0)" x2="0" y2="5" stroke="#888" stroke-width="1" opacity="1"/><line transform="translate(1050,0)" x2="0" y2="5" stroke="#888" stroke-width="1" opacity="1"/><line transform="translate(1070,0)" x2="0" y2="5" stroke="#888" stroke-width="1" opacity="1"/><line transform="translate(1090,0)" x2="0" y2="5" stroke="#888" stroke-width="1" opacity="1"/><line transform="translate(1110,0)" x2="0" y2="5" stroke="#888" stroke-width="1" opacity="1"/><line transform="translate(1130,0)" x2="0" y2="5" stroke="#888" stroke-width="1" opacity="1"/><line transform="translate(1150,0)" x2="0" y2="5" stroke="#888" stroke-width="1" opacity="1"/><line transform="translate(1170,0)" x2="0" y2="5" stroke="#888" stroke-width="1" opacity="1"/><line transform="translate(1190,0)" x2="0" y2="5" stroke="#888" stroke-width="1" opacity="1"/><line transform="translate(1210,0)" x2="0" y2="5" stroke="#888" stroke-width="1" opacity="1"/><line transform="translate(1230,0)" x2="0" y2="5" stroke="#888" stroke-width="1" opacity="1"/></g><g class="mark-text role-axis-label" pointer-events="none"><text text-anchor="end" transform="translate(9.5,7) rotate(270) translate(0,3)" font-family="sans-serif" font-size="10px" fill="#000" opacity="1">Venezuela</text><text text-anchor="end" transform="translate(29.5,7) rotate(270) translate(0,3)" font-family="sans-serif" font-size="10px" fill="#000" opacity="1">Peru</text><text text-anchor="end" transform="translate(49.5,7) rotate(270) translate(0,3)" font-family="sans-serif" font-size="10px" fill="#000" opacity="1">Dominican Republic</text><text text-anchor="end" transform="translate(69.5,7) rotate(270) translate(0,3)" font-family="sans-serif" font-size="10px" fill="#000" opacity="1">Ecuador</text><text text-anchor="end" transform="translate(89.5,7) rotate(270) translate(0,3)" font-family="sans-serif" font-size="10px" fill="#000" opacity="1">Madagascar</text><text text-anchor="end" transform="translate(109.5,7) rotate(270) translate(0,3)" font-family="sans-serif" font-size="10px" fill="#000" opacity="1">Blend</text><text text-anchor="end" transform="translate(129.5,7) rotate(270) translate(0,3)" font-family="sans-serif" font-size="10px" fill="#000" opacity="1">Nicaragua</text><text text-anchor="end" transform="translate(149.5,7) rotate(270) translate(0,3)" font-family="sans-serif" font-size="10px" fill="#000" opacity="1">Tanzania</text><text text-anchor="end" transform="translate(169.5,7) rotate(270) translate(0,3)" font-family="sans-serif" font-size="10px" fill="#000" opacity="1">Brazil</text><text text-anchor="end" transform="translate(189.5,7) rotate(270) translate(0,3)" font-family="sans-serif" font-size="10px" fill="#000" opacity="1">Bolivia</text><text text-anchor="end" transform="translate(209.5,7) rotate(270) translate(0,3)" font-family="sans-serif" font-size="10px" fill="#000" opacity="1">Colombia</text><text text-anchor="end" transform="translate(229.5,7) rotate(270) translate(0,3)" font-family="sans-serif" font-size="10px" fill="#000" opacity="1">Belize</text><text text-anchor="end" transform="translate(249.5,7) rotate(270) translate(0,3)" font-family="sans-serif" font-size="10px" fill="#000" opacity="1">Vietnam</text><text text-anchor="end" transform="translate(269.5,7) rotate(270) translate(0,3)" font-family="sans-serif" font-size="10px" fill="#000" opacity="1">Guatemala</text><text text-anchor="end" transform="translate(289.5,7) rotate(270) translate(0,3)" font-family="sans-serif" font-size="10px" fill="#000" opacity="1">Mexico</text><text text-anchor="end" transform="translate(309.5,7) rotate(270) translate(0,3)" font-family="sans-serif" font-size="10px" fill="#000" opacity="1">Papua New Guinea</text><text text-anchor="end" transform="translate(329.5,7) rotate(270) translate(0,3)" font-family="sans-serif" font-size="10px" fill="#000" opacity="1">Trinidad</text><text text-anchor="end" transform="translate(349.5,7) rotate(270) translate(0,3)" font-family="sans-serif" font-size="10px" fill="#000" opacity="1">Costa Rica</text><text text-anchor="end" transform="translate(369.5,7) rotate(270) translate(0,3)" font-family="sans-serif" font-size="10px" fill="#000" opacity="1">Ghana</text><text text-anchor="end" transform="translate(389.5,7) rotate(270) translate(0,3)" font-family="sans-serif" font-size="10px" fill="#000" opacity="1">India</text><text text-anchor="end" transform="translate(409.5,7) rotate(270) translate(0,3)" font-family="sans-serif" font-size="10px" fill="#000" opacity="1">U.S.A.</text><text text-anchor="end" transform="translate(429.5,7) rotate(270) translate(0,3)" font-family="sans-serif" font-size="10px" fill="#000" opacity="1">Haiti</text><text text-anchor="end" transform="translate(449.5,7) rotate(270) translate(0,3)" font-family="sans-serif" font-size="10px" fill="#000" opacity="1">Honduras</text><text text-anchor="end" transform="translate(469.5,7) rotate(270) translate(0,3)" font-family="sans-serif" font-size="10px" fill="#000" opacity="1">Jamaica</text><text text-anchor="end" transform="translate(489.5,7) rotate(270) translate(0,3)" font-family="sans-serif" font-size="10px" fill="#000" opacity="1">Philippines</text><text text-anchor="end" transform="translate(509.5,7) rotate(270) translate(0,3)" font-family="sans-serif" font-size="10px" fill="#000" opacity="1">Indonesia</text><text text-anchor="end" transform="translate(529.5,7) rotate(270) translate(0,3)" font-family="sans-serif" font-size="10px" fill="#000" opacity="1">Uganda</text><text text-anchor="end" transform="translate(549.5,7) rotate(270) translate(0,3)" font-family="sans-serif" font-size="10px" fill="#000" opacity="1">Grenada</text><text text-anchor="end" transform="translate(569.5,7) rotate(270) translate(0,3)" font-family="sans-serif" font-size="10px" fill="#000" opacity="1">Fiji</text><text text-anchor="end" transform="translate(589.5,7) rotate(270) translate(0,3)" font-family="sans-serif" font-size="10px" fill="#000" opacity="1">Sao Tome</text><text text-anchor="end" transform="translate(609.5,7) rotate(270) translate(0,3)" font-family="sans-serif" font-size="10px" fill="#000" opacity="1">Vanuatu</text><text text-anchor="end" transform="translate(629.5,7) rotate(270) translate(0,3)" font-family="sans-serif" font-size="10px" fill="#000" opacity="1">Cuba</text><text text-anchor="end" transform="translate(649.5,7) rotate(270) translate(0,3)" font-family="sans-serif" font-size="10px" fill="#000" opacity="1">Congo</text><text text-anchor="end" transform="translate(669.5,7) rotate(270) translate(0,3)" font-family="sans-serif" font-size="10px" fill="#000" opacity="1">Solomon Islands</text><text text-anchor="end" transform="translate(689.5,7) rotate(270) translate(0,3)" font-family="sans-serif" font-size="10px" fill="#000" opacity="1">St. Lucia</text><text text-anchor="end" transform="translate(709.5,7) rotate(270) translate(0,3)" font-family="sans-serif" font-size="10px" fill="#000" opacity="1">Panama</text><text text-anchor="end" transform="translate(729.5,7) rotate(270) translate(0,3)" font-family="sans-serif" font-size="10px" fill="#000" opacity="1">Malaysia</text><text text-anchor="end" transform="translate(749.5,7) rotate(270) translate(0,3)" font-family="sans-serif" font-size="10px" fill="#000" opacity="1">Ivory Coast</text><text text-anchor="end" transform="translate(769.5,7) rotate(270) translate(0,3)" font-family="sans-serif" font-size="10px" fill="#000" opacity="1">Puerto Rico</text><text text-anchor="end" transform="translate(789.5,7) rotate(270) translate(0,3)" font-family="sans-serif" font-size="10px" fill="#000" opacity="1">El Salvador</text><text text-anchor="end" transform="translate(809.5,7) rotate(270) translate(0,3)" font-family="sans-serif" font-size="10px" fill="#000" opacity="1">Thailand</text><text text-anchor="end" transform="translate(829.5,7) rotate(270) translate(0,3)" font-family="sans-serif" font-size="10px" fill="#000" opacity="1">Sierra Leone</text><text text-anchor="end" transform="translate(849.5,7) rotate(270) translate(0,3)" font-family="sans-serif" font-size="10px" fill="#000" opacity="1">Australia</text><text text-anchor="end" transform="translate(869.5,7) rotate(270) translate(0,3)" font-family="sans-serif" font-size="10px" fill="#000" opacity="1">Cameroon</text><text text-anchor="end" transform="translate(889.5,7) rotate(270) translate(0,3)" font-family="sans-serif" font-size="10px" fill="#000" opacity="1">Liberia</text><text text-anchor="end" transform="translate(909.5,7) rotate(270) translate(0,3)" font-family="sans-serif" font-size="10px" fill="#000" opacity="1">Togo</text><text text-anchor="end" transform="translate(929.5,7) rotate(270) translate(0,3)" font-family="sans-serif" font-size="10px" fill="#000" opacity="1">Samoa</text><text text-anchor="end" transform="translate(949.5,7) rotate(270) translate(0,3)" font-family="sans-serif" font-size="10px" fill="#000" opacity="1">Nigeria</text><text text-anchor="end" transform="translate(969.5,7) rotate(270) translate(0,3)" font-family="sans-serif" font-size="10px" fill="#000" opacity="1">Tobago</text><text text-anchor="end" transform="translate(989.5,7) rotate(270) translate(0,3)" font-family="sans-serif" font-size="10px" fill="#000" opacity="1">Sao Tome &amp; Principe</text><text text-anchor="end" transform="translate(1009.5,7) rotate(270) translate(0,3)" font-family="sans-serif" font-size="10px" fill="#000" opacity="1">Sri Lanka</text><text text-anchor="end" transform="translate(1029.5,7) rotate(270) translate(0,3)" font-family="sans-serif" font-size="10px" fill="#000" opacity="1">Taiwan</text><text text-anchor="end" transform="translate(1049.5,7) rotate(270) translate(0,3)" font-family="sans-serif" font-size="10px" fill="#000" opacity="1">China</text><text text-anchor="end" transform="translate(1069.5,7) rotate(270) translate(0,3)" font-family="sans-serif" font-size="10px" fill="#000" opacity="1">Sulawesi</text><text text-anchor="end" transform="translate(1089.5,7) rotate(270) translate(0,3)" font-family="sans-serif" font-size="10px" fill="#000" opacity="1">Gabon</text><text text-anchor="end" transform="translate(1109.5,7) rotate(270) translate(0,3)" font-family="sans-serif" font-size="10px" fill="#000" opacity="1">Suriname</text><text text-anchor="end" transform="translate(1129.5,7) rotate(270) translate(0,3)" font-family="sans-serif" font-size="10px" fill="#000" opacity="1">Sumatra</text><text text-anchor="end" transform="translate(1149.5,7) rotate(270) translate(0,3)" font-family="sans-serif" font-size="10px" fill="#000" opacity="1">Burma</text><text text-anchor="end" transform="translate(1169.5,7) rotate(270) translate(0,3)" font-family="sans-serif" font-size="10px" fill="#000" opacity="1">DR Congo</text><text text-anchor="end" transform="translate(1189.5,7) rotate(270) translate(0,3)" font-family="sans-serif" font-size="10px" fill="#000" opacity="1">Principe</text><text text-anchor="end" transform="translate(1209.5,7) rotate(270) translate(0,3)" font-family="sans-serif" font-size="10px" fill="#000" opacity="1">Martinique</text><text text-anchor="end" transform="translate(1229.5,7) rotate(270) translate(0,3)" font-family="sans-serif" font-size="10px" fill="#000" opacity="1">St.Vincent-Grenadines</text></g><g class="mark-rule role-axis-domain" pointer-events="none"><line transform="translate(0,0)" x2="1240" y2="0" stroke="#888" stroke-width="1" opacity="1"/></g><g class="mark-text role-axis-title" pointer-events="none"><text text-anchor="middle" transform="translate(620,120.4296875)" font-family="sans-serif" font-size="11px" font-weight="bold" fill="#000" opacity="1">bean_origin</text></g></g><path class="foreground" aria-hidden="true" d="" pointer-events="none" display="none"/></g></g><g class="mark-group role-axis" role="graphics-symbol" aria-roledescription="axis" aria-label="Y-axis titled 'sum(rating)' for a linear scale with values from 0 to 900"><g transform="translate(0.5,0.5)"><path class="background" aria-hidden="true" d="M0,0h0v0h0Z" pointer-events="none"/><g><g class="mark-rule role-axis-tick" pointer-events="none"><line transform="translate(0,200)" x2="-5" y2="0" stroke="#888" stroke-width="1" opacity="1"/><line transform="translate(0,156)" x2="-5" y2="0" stroke="#888" stroke-width="1" opacity="1"/><line transform="translate(0,111)" x2="-5" y2="0" stroke="#888" stroke-width="1" opacity="1"/><line transform="translate(0,67)" x2="-5" y2="0" stroke="#888" stroke-width="1" opacity="1"/><line transform="translate(0,22)" x2="-5" y2="0" stroke="#888" stroke-width="1" opacity="1"/></g><g class="mark-text role-axis-label" pointer-events="none"><text text-anchor="end" transform="translate(-7,203)" font-family="sans-serif" font-size="10px" fill="#000" opacity="1">0</text><text text-anchor="end" transform="translate(-7,158.55555555555557)" font-family="sans-serif" font-size="10px" fill="#000" opacity="1">200</text><text text-anchor="end" transform="translate(-7,114.11111111111111)" font-family="sans-serif" font-size="10px" fill="#000" opacity="1">400</text><text text-anchor="end" transform="translate(-7,69.66666666666667)" font-family="sans-serif" font-size="10px" fill="#000" opacity="1">600</text><text text-anchor="end" transform="translate(-7,25.222222222222232)" font-family="sans-serif" font-size="10px" fill="#000" opacity="1">800</text></g><g class="mark-rule role-axis-domain" pointer-events="none"><line transform="translate(0,200)" x2="0" y2="-200" stroke="#888" stroke-width="1" opacity="1"/></g><g class="mark-text role-axis-title" pointer-events="none"><text text-anchor="middle" transform="translate(-27.6845703125,100) rotate(-90) translate(0,-2)" font-family="sans-serif" font-size="11px" font-weight="bold" fill="#000" opacity="1">sum(rating)</text></g></g><path class="foreground" aria-hidden="true" d="" pointer-events="none" display="none"/></g></g><g class="mark-rect role-mark marks" role="graphics-object" aria-roledescription="rect mark container"><path aria-label="bean_origin: Ecuador; sum(rating): 693" role="graphics-symbol" aria-roledescription="bar" d="M61,46h18v154h-18Z" fill="#5B8FF9" opacity="0.96"/><path aria-label="bean_origin: Nicaragua; sum(rating): 325.5" role="graphics-symbol" aria-roledescription="bar" d="M121,127.66666666666666h18v72.33333333333334h-18Z" fill="#5B8FF9" opacity="0.96"/><path aria-label="bean_origin: Belize; sum(rating): 245.75" role="graphics-symbol" aria-roledescription="bar" d="M221,145.38888888888889h18v54.611111111111114h-18Z" fill="#5B8FF9" opacity="0.96"/><path aria-label="bean_origin: Peru; sum(rating): 780.25" role="graphics-symbol" aria-roledescription="bar" d="M21,26.611111111111118h18v173.38888888888889h-18Z" fill="#5B8FF9" opacity="0.96"/><path aria-label="bean_origin: Brazil; sum(rating): 254.5" role="graphics-symbol" aria-roledescription="bar" d="M161,143.44444444444443h18v56.55555555555557h-18Z" fill="#5B8FF9" opacity="0.96"/><path aria-label="bean_origin: Sulawesi; sum(rating): 3.25" role="graphics-symbol" aria-roledescription="bar" d="M1061,199.27777777777777h18v0.7222222222222285h-18Z" fill="#5B8FF9" opacity="0.96"/><path aria-label="bean_origin: Tanzania; sum(rating): 255.5" role="graphics-symbol" aria-roledescription="bar" d="M141,143.22222222222223h18v56.77777777777777h-18Z" fill="#5B8FF9" opacity="0.96"/><path aria-label="bean_origin: Jamaica; sum(rating): 76.75" role="graphics-symbol" aria-roledescription="bar" d="M461,182.94444444444446h18v17.055555555555543h-18Z" fill="#5B8FF9" opacity="0.96"/><path aria-label="bean_origin: Venezuela; sum(rating): 817.5" role="graphics-symbol" aria-roledescription="bar" d="M1,18.333333333333336h18v181.66666666666666h-18Z" fill="#5B8FF9" opacity="0.96"/><path aria-label="bean_origin: Colombia; sum(rating): 252.5" role="graphics-symbol" aria-roledescription="bar" d="M201,143.88888888888889h18v56.111111111111114h-18Z" fill="#5B8FF9" opacity="0.96"/><path aria-label="bean_origin: Madagascar; sum(rating): 578.25" role="graphics-symbol" aria-roledescription="bar" d="M81,71.50000000000001h18v128.5h-18Z" fill="#5B8FF9" opacity="0.96"/><path aria-label="bean_origin: Dominican Republic; sum(rating): 726.75" role="graphics-symbol" aria-roledescription="bar" d="M41,38.5h18v161.5h-18Z" fill="#5B8FF9" opacity="0.96"/><path aria-label="bean_origin: Sao Tome; sum(rating): 43" role="graphics-symbol" aria-roledescription="bar" d="M581,190.44444444444443h18v9.555555555555571h-18Z" fill="#5B8FF9" opacity="0.96"/><path aria-label="bean_origin: Blend; sum(rating): 474" role="graphics-symbol" aria-roledescription="bar" d="M101,94.66666666666667h18v105.33333333333333h-18Z" fill="#5B8FF9" opacity="0.96"/><path aria-label="bean_origin: Cameroon; sum(rating): 9.25" role="graphics-symbol" aria-roledescription="bar" d="M861,197.94444444444443h18v2.0555555555555713h-18Z" fill="#5B8FF9" opacity="0.96"/><path aria-label="bean_origin: Sao Tome &amp; Principe; sum(rating): 7" role="graphics-symbol" aria-roledescription="bar" d="M981,198.44444444444446h18v1.555555555555543h-18Z" fill="#5B8FF9" opacity="0.96"/><path aria-label="bean_origin: India; sum(rating): 110.75" role="graphics-symbol" aria-roledescription="bar" d="M381,175.38888888888889h18v24.611111111111114h-18Z" fill="#5B8FF9" opacity="0.96"/><path aria-label="bean_origin: Mexico; sum(rating): 174.25" role="graphics-symbol" aria-roledescription="bar" d="M281,161.27777777777777h18v38.72222222222223h-18Z" fill="#5B8FF9" opacity="0.96"/><path aria-label="bean_origin: Bolivia; sum(rating): 254.5" role="graphics-symbol" aria-roledescription="bar" d="M181,143.44444444444443h18v56.55555555555557h-18Z" fill="#5B8FF9" opacity="0.96"/><path aria-label="bean_origin: Cuba; sum(rating): 39.5" role="graphics-symbol" aria-roledescription="bar" d="M621,191.22222222222223h18v8.777777777777771h-18Z" fill="#5B8FF9" opacity="0.96"/><path aria-label="bean_origin: Panama; sum(rating): 28" role="graphics-symbol" aria-roledescription="bar" d="M701,193.77777777777777h18v6.2222222222222285h-18Z" fill="#5B8FF9" opacity="0.96"/><path aria-label="bean_origin: Ghana; sum(rating): 128.5" role="graphics-symbol" aria-roledescription="bar" d="M361,171.44444444444446h18v28.555555555555543h-18Z" fill="#5B8FF9" opacity="0.96"/><path aria-label="bean_origin: Costa Rica; sum(rating): 135.5" role="graphics-symbol" aria-roledescription="bar" d="M341,169.88888888888889h18v30.111111111111114h-18Z" fill="#5B8FF9" opacity="0.96"/><path aria-label="bean_origin: Papua New Guinea; sum(rating): 164" role="graphics-symbol" aria-roledescription="bar" d="M301,163.55555555555554h18v36.44444444444446h-18Z" fill="#5B8FF9" opacity="0.96"/><path aria-label="bean_origin: Haiti; sum(rating): 98" role="graphics-symbol" aria-roledescription="bar" d="M421,178.22222222222223h18v21.77777777777777h-18Z" fill="#5B8FF9" opacity="0.96"/><path aria-label="bean_origin: Liberia; sum(rating): 9.25" role="graphics-symbol" aria-roledescription="bar" d="M881,197.94444444444443h18v2.0555555555555713h-18Z" fill="#5B8FF9" opacity="0.96"/><path aria-label="bean_origin: Philippines; sum(rating): 75" role="graphics-symbol" aria-roledescription="bar" d="M481,183.33333333333331h18v16.666666666666686h-18Z" fill="#5B8FF9" opacity="0.96"/><path aria-label="bean_origin: Vietnam; sum(rating): 240" role="graphics-symbol" aria-roledescription="bar" d="M241,146.66666666666669h18v53.333333333333314h-18Z" fill="#5B8FF9" opacity="0.96"/><path aria-label="bean_origin: Sri Lanka; sum(rating): 5.75" role="graphics-symbol" aria-roledescription="bar" d="M1001,198.72222222222223h18v1.2777777777777715h-18Z" fill="#5B8FF9" opacity="0.96"/><path aria-label="bean_origin: Thailand; sum(rating): 16.5" role="graphics-symbol" aria-roledescription="bar" d="M801,196.33333333333334h18v3.666666666666657h-18Z" fill="#5B8FF9" opacity="0.96"/><path aria-label="bean_origin: Sierra Leone; sum(rating): 11" role="graphics-symbol" aria-roledescription="bar" d="M821,197.55555555555554h18v2.444444444444457h-18Z" fill="#5B8FF9" opacity="0.96"/><path aria-label="bean_origin: Vanuatu; sum(rating): 40.5" role="graphics-symbol" aria-roledescription="bar" d="M601,191h18v9h-18Z" fill="#5B8FF9" opacity="0.96"/><path aria-label="bean_origin: Guatemala; sum(rating): 202" role="graphics-symbol" aria-roledescription="bar" d="M261,155.11111111111111h18v44.888888888888886h-18Z" fill="#5B8FF9" opacity="0.96"/><path aria-label="bean_origin: Trinidad; sum(rating): 136.25" role="graphics-symbol" aria-roledescription="bar" d="M321,169.72222222222223h18v30.27777777777777h-18Z" fill="#5B8FF9" opacity="0.96"/><path aria-label="bean_origin: Honduras; sum(rating): 81" role="graphics-symbol" aria-roledescription="bar" d="M441,182h18v18h-18Z" fill="#5B8FF9" opacity="0.96"/><path aria-label="bean_origin: Grenada; sum(rating): 57.5" role="graphics-symbol" aria-roledescription="bar" d="M541,187.22222222222223h18v12.777777777777771h-18Z" fill="#5B8FF9" opacity="0.96"/><path aria-label="bean_origin: Indonesia; sum(rating): 62.25" role="graphics-symbol" aria-roledescription="bar" d="M501,186.16666666666666h18v13.833333333333343h-18Z" fill="#5B8FF9" opacity="0.96"/><path aria-label="bean_origin: Fiji; sum(rating): 49" role="graphics-symbol" aria-roledescription="bar" d="M561,189.11111111111111h18v10.888888888888886h-18Z" fill="#5B8FF9" opacity="0.96"/><path aria-label="bean_origin: Congo; sum(rating): 36.5" role="graphics-symbol" aria-roledescription="bar" d="M641,191.88888888888889h18v8.111111111111114h-18Z" fill="#5B8FF9" opacity="0.96"/><path aria-label="bean_origin: U.S.A.; sum(rating): 107" role="graphics-symbol" aria-roledescription="bar" d="M401,176.2222222222222h18v23.7777777777778h-18Z" fill="#5B8FF9" opacity="0.96"/><path aria-label="bean_origin: Malaysia; sum(rating): 24.75" role="graphics-symbol" aria-roledescription="bar" d="M721,194.5h18v5.5h-18Z" fill="#5B8FF9" opacity="0.96"/><path aria-label="bean_origin: Solomon Islands; sum(rating): 34.5" role="graphics-symbol" aria-roledescription="bar" d="M661,192.33333333333334h18v7.666666666666657h-18Z" fill="#5B8FF9" opacity="0.96"/><path aria-label="bean_origin: Uganda; sum(rating): 58.25" role="graphics-symbol" aria-roledescription="bar" d="M521,187.05555555555554h18v12.944444444444457h-18Z" fill="#5B8FF9" opacity="0.96"/><path aria-label="bean_origin: Puerto Rico; sum(rating): 19" role="graphics-symbol" aria-roledescription="bar" d="M761,195.77777777777777h18v4.2222222222222285h-18Z" fill="#5B8FF9" opacity="0.96"/><path aria-label="bean_origin: St. Lucia; sum(rating): 29.5" role="graphics-symbol" aria-roledescription="bar" d="M681,193.44444444444443h18v6.555555555555571h-18Z" fill="#5B8FF9" opacity="0.96"/><path aria-label="bean_origin: Australia; sum(rating): 9.75" role="graphics-symbol" aria-roledescription="bar" d="M841,197.83333333333331h18v2.1666666666666856h-18Z" fill="#5B8FF9" opacity="0.96"/><path aria-label="bean_origin: Togo; sum(rating): 9.25" role="graphics-symbol" aria-roledescription="bar" d="M901,197.94444444444443h18v2.0555555555555713h-18Z" fill="#5B8FF9" opacity="0.96"/><path aria-label="bean_origin: China; sum(rating): 3.5" role="graphics-symbol" aria-roledescription="bar" d="M1041,199.2222222222222h18v0.7777777777777999h-18Z" fill="#5B8FF9" opacity="0.96"/><path aria-label="bean_origin: Principe; sum(rating): 2.75" role="graphics-symbol" aria-roledescription="bar" d="M1181,199.38888888888889h18v0.6111111111111143h-18Z" fill="#5B8FF9" opacity="0.96"/><path aria-label="bean_origin: Sumatra; sum(rating): 3" role="graphics-symbol" aria-roledescription="bar" d="M1121,199.33333333333334h18v0.6666666666666572h-18Z" fill="#5B8FF9" opacity="0.96"/><path aria-label="bean_origin: Gabon; sum(rating): 3.25" role="graphics-symbol" aria-roledescription="bar" d="M1081,199.27777777777777h18v0.7222222222222285h-18Z" fill="#5B8FF9" opacity="0.96"/><path aria-label="bean_origin: El Salvador; sum(rating): 18" role="graphics-symbol" aria-roledescription="bar" d="M781,196h18v4h-18Z" fill="#5B8FF9" opacity="0.96"/><path aria-label="bean_origin: Tobago; sum(rating): 7.25" role="graphics-symbol" aria-roledescription="bar" d="M961,198.38888888888889h18v1.6111111111111143h-18Z" fill="#5B8FF9" opacity="0.96"/><path aria-label="bean_origin: Samoa; sum(rating): 9.25" role="graphics-symbol" aria-roledescription="bar" d="M921,197.94444444444443h18v2.0555555555555713h-18Z" fill="#5B8FF9" opacity="0.96"/><path aria-label="bean_origin: Nigeria; sum(rating): 9" role="graphics-symbol" aria-roledescription="bar" d="M941,198h18v2h-18Z" fill="#5B8FF9" opacity="0.96"/><path aria-label="bean_origin: Ivory Coast; sum(rating): 20" role="graphics-symbol" aria-roledescription="bar" d="M741,195.55555555555554h18v4.444444444444457h-18Z" fill="#5B8FF9" opacity="0.96"/><path aria-label="bean_origin: Burma; sum(rating): 3" role="graphics-symbol" aria-roledescription="bar" d="M1141,199.33333333333334h18v0.6666666666666572h-18Z" fill="#5B8FF9" opacity="0.96"/><path aria-label="bean_origin: Taiwan; sum(rating): 5.75" role="graphics-symbol" aria-roledescription="bar" d="M1021,198.72222222222223h18v1.2777777777777715h-18Z" fill="#5B8FF9" opacity="0.96"/><path aria-label="bean_origin: DR Congo; sum(rating): 3" role="graphics-symbol" aria-roledescription="bar" d="M1161,199.33333333333334h18v0.6666666666666572h-18Z" fill="#5B8FF9" opacity="0.96"/><path aria-label="bean_origin: Martinique; sum(rating): 2.75" role="graphics-symbol" aria-roledescription="bar" d="M1201,199.38888888888889h18v0.6111111111111143h-18Z" fill="#5B8FF9" opacity="0.96"/><path aria-label="bean_origin: Suriname; sum(rating): 3.25" role="graphics-symbol" aria-roledescription="bar" d="M1101,199.27777777777777h18v0.7222222222222285h-18Z" fill="#5B8FF9" opacity="0.96"/><path aria-label="bean_origin: St.Vincent-Grenadines; sum(rating): 2.75" role="graphics-symbol" aria-roledescription="bar" d="M1221,199.38888888888889h18v0.6111111111111143h-18Z" fill="#5B8FF9" opacity="0.96"/></g></g><path class="foreground" aria-hidden="true" d="" display="none"/></g></g></g></svg>